# xmcd
#
# Track frame offsets:
#	150
#	12826
#	26340
#	43071
#	56654
#	69662
#	85994
#	100120
#	113529
#	132060
#	149174
#	161035
#	175200
#	190715
#
# Disc length: 2763 seconds
#
# Revision: 0
# Processed by: cddbd v1.4PL0 Copyright (c) Steve Scherf et al.
# Submitted via: dBpowerAMP V4.0
#
DISCID=ba0ac90e
DTITLE=Bandit - The Tura Songbook
DYEAR=1900
DGENRE=Country
TTITLE0=Lonesome 7-7203
TTITLE1=Donna Carmela
TTITLE2=One way love
TTITLE3=San Miguel
TTITLE4=Come do the line dance
TTITLE5=Could I be the one
TTITLE6=The great el tigre
TTITLE7=Goodbye Elvis
TTITLE8=Summertime romance
TTITLE9=Oh my darling
TTITLE10=Here comes another lonely night
TTITLE11=Why, tell me why
TTITLE12=Could I be in love
TTITLE13=Someone to believe in
EXTD=
EXTT0=
EXTT1=
EXTT2=
EXTT3=
EXTT4=
EXTT5=
EXTT6=
EXTT7=
EXTT8=
EXTT9=
EXTT10=
EXTT11=
EXTT12=
EXTT13=
PLAYORDER=
